<svg width="17" height="17" viewBox="0 0 17 17" fill="none" xmlns="http://www.w3.org/2000/svg">
<path d="M4.08015 14.6992C4.43525 14.6992 4.79034 14.5321 5.10365 14.2188C5.56318 13.7592 5.89739 13.1535 6.27337 12.4224C6.60757 11.7749 7.00444 11.0856 7.61018 10.2919C7.86083 10.459 8.15326 10.5843 8.46658 10.647C8.32036 11.6287 8.11149 12.3807 7.88172 13.0908C7.63107 13.8846 7.44308 14.5321 7.44308 15.1796C7.44308 16.0778 7.96527 16.6 8.80078 16.6C9.63629 16.6 10.1585 16.0778 10.1585 15.1796C10.1585 14.5321 9.97049 13.8846 9.71984 13.0908C9.49008 12.3807 9.30209 11.6287 9.15587 10.647C9.46919 10.6052 9.76162 10.4799 10.0123 10.2919C10.5971 11.1065 10.994 11.7749 11.3282 12.4224C11.7042 13.1535 12.0384 13.7592 12.4979 14.2188C12.8112 14.5321 13.1663 14.6992 13.5214 14.6992C13.8556 14.6992 14.1689 14.553 14.4614 14.2605C14.7538 13.9681 14.9 13.6548 14.9 13.3206C14.9 12.9655 14.7329 12.6104 14.4196 12.2971C13.9601 11.8376 13.3543 11.5034 12.6232 11.1274C11.9757 10.7932 11.3073 10.3963 10.4927 9.81146C10.6807 9.56081 10.7851 9.26838 10.8478 8.95507C11.8295 9.10128 12.5815 9.28927 13.2916 9.51903C14.0854 9.76969 14.7329 9.95768 15.3804 9.95768C16.2786 9.95768 16.8008 9.43548 16.8008 8.59997C16.8008 7.76447 16.2786 7.24227 15.3804 7.24227C14.7329 7.24227 14.0854 7.43026 13.2916 7.68091C12.5815 7.91068 11.8295 8.11956 10.8478 8.26577C10.7851 7.93157 10.6598 7.66003 10.4927 7.40937C11.2864 6.80363 11.9757 6.40676 12.6232 6.07256C13.3543 5.69658 13.9601 5.36238 14.4196 4.90285C14.7329 4.58953 14.9 4.23444 14.9 3.87935C14.9 3.54514 14.7538 3.23183 14.4614 2.9394C14.1689 2.64697 13.8556 2.50076 13.5214 2.50076C13.1663 2.50076 12.8112 2.66786 12.4979 2.98118C12.0384 3.44071 11.7042 4.04645 11.3282 4.77752C10.994 5.42504 10.5971 6.11434 9.99138 6.90807C9.76162 6.74097 9.46919 6.61564 9.15587 6.55298C9.30209 5.57125 9.49008 4.8193 9.71984 4.10911C9.97049 3.31538 10.1585 2.66786 10.1585 2.02034C10.1585 1.12217 9.63629 0.599976 8.80078 0.599976C7.96527 0.599976 7.44308 1.12217 7.44308 2.02034C7.44308 2.66786 7.63107 3.31538 7.88172 4.10911C8.11149 4.8193 8.32036 5.57125 8.46658 6.57387C8.15326 6.61564 7.86083 6.74097 7.61018 6.92896C7.00444 6.11434 6.60757 5.42504 6.27337 4.77752C5.89739 4.04645 5.56318 3.44071 5.10365 2.98118C4.79034 2.66786 4.43525 2.50076 4.08015 2.50076C3.74595 2.50076 3.43264 2.64697 3.14021 2.9394C2.84778 3.23183 2.70156 3.54514 2.70156 3.87935C2.70156 4.23444 2.86867 4.58953 3.18198 4.90285C3.64151 5.36238 4.24726 5.69658 4.97833 6.07256C5.62585 6.40676 6.31514 6.80363 7.12976 7.40937C6.94177 7.66003 6.81645 7.95246 6.77467 8.26577C5.77206 8.11956 5.0201 7.91068 4.30992 7.68091C3.51619 7.43026 2.86867 7.24227 2.22115 7.24227C1.32297 7.24227 0.800781 7.76447 0.800781 8.59997C0.800781 9.43548 1.32297 9.95768 2.22115 9.95768C2.86867 9.95768 3.51619 9.76969 4.30992 9.51903C5.0201 9.28927 5.77206 9.10128 6.75378 8.95507C6.81645 9.26838 6.94177 9.56081 7.10888 9.79058C6.31514 10.3963 5.62585 10.7932 4.97833 11.1274C4.24726 11.5034 3.64151 11.8376 3.18198 12.2971C2.86867 12.6104 2.70156 12.9655 2.70156 13.3206C2.70156 13.6548 2.84778 13.9681 3.14021 14.2605C3.43264 14.553 3.74595 14.6992 4.08015 14.6992Z" fill="#FAFAFA"/>
</svg>
